<svg id="Layer_1" data-name="Layer 1" xmlns="http://www.w3.org/2000/svg" viewBox="0 0 97 110"><defs><style>.cls-1{fill:#fff;}</style></defs><title>Gazelle_Icons_Logo_110px</title><path class="cls-1" d="M55,110a10,10,0,0,1-5-1.34L11.51,86.75a10.07,10.07,0,0,1-5-8.69V39a3.8,3.8,0,0,1,3.79,3.8V78.06a6.26,6.26,0,0,0,3.11,5.4l38.5,21.91a6.22,6.22,0,0,0,6.22,0L96.08,83a3.79,3.79,0,0,1,5.18,1.39L60,108.66A10,10,0,0,1,55,110" transform="translate(-6.5 0)"/><path class="cls-1" d="M55,0a10,10,0,0,1,5,1.34l38.5,21.91a10.07,10.07,0,0,1,5,8.69V71.11a3.8,3.8,0,0,1-3.79-3.8V31.94a6.25,6.25,0,0,0-3.11-5.4L58.1,4.64a6.22,6.22,0,0,0-6.22,0L13.92,27A3.79,3.79,0,0,1,8.74,25.6L50,1.34A10,10,0,0,1,55,0" transform="translate(-6.5 0)"/><polygon class="cls-1" points="48.45 69.97 44.18 69.97 25.52 46.4 25.52 69.97 21.25 69.97 21.25 40.03 25.52 40.03 44.18 63.6 44.18 40.03 48.45 40.03 48.45 69.97"/><path class="cls-1" d="M70.24,46.22a3.93,3.93,0,0,0-1.11-2.9,3.74,3.74,0,0,0-2.75-1.11,3.68,3.68,0,0,0-2.74,1.11,4.41,4.41,0,0,0,0,5.79,3.67,3.67,0,0,0,2.74,1.11,3.74,3.74,0,0,0,2.75-1.11,3.93,3.93,0,0,0,1.11-2.9m3.16,0a6.6,6.6,0,0,1-2,4.88,7.33,7.33,0,0,1-10,0,7,7,0,0,1,0-9.76,6.77,6.77,0,0,1,5-2,6.85,6.85,0,0,1,5,2,6.59,6.59,0,0,1,2,4.88" transform="translate(-6.5 0)"/><polygon class="cls-1" points="75.83 69.97 71.39 69.97 71.39 41.99 75.83 38.96 75.83 69.97"/></svg>